<svg version="1.1" id="Layer_1"
	xmlns="http://www.w3.org/2000/svg"
	xmlns:xlink="http://www.w3.org/1999/xlink" x="0px" y="0px" width="600" viewBox="0 0 1920 1920" enable-background="new 0 0 1920 1920" xml:space="preserve" height="600">
	<path fill="#af7557" opacity="1.000000" stroke="none" d="
M1186.630615,1127.700928 
	C1203.907227,1121.560547 1221.089111,1116.276489 1237.644653,1109.468750 
	C1251.196167,1103.896484 1264.064575,1096.630859 1277.097900,1089.850708 
	C1280.986816,1087.827637 1284.373779,1084.854492 1288.057373,1082.417480 
	C1291.812134,1079.933594 1295.039673,1080.885498 1297.381592,1084.835205 
	C1308.241577,1103.150879 1313.943604,1123.228027 1316.942383,1144.071045 
	C1318.604492,1155.622559 1318.985229,1167.354858 1320.059082,1178.995117 
	C1321.730469,1197.110596 1318.611450,1214.619873 1313.565308,1231.899048 
	C1306.992920,1254.404053 1296.724731,1275.145508 1282.520264,1293.729492 
	C1270.725952,1309.160522 1257.632446,1323.494507 1241.856812,1335.102295 
	C1241.532471,1335.340698 1241.364990,1335.792236 1240.527710,1337.017944 
	C1244.441528,1336.604980 1247.573364,1336.360107 1250.680176,1335.932983 
	C1273.393921,1332.810181 1295.418213,1335.489502 1316.151733,1345.232788 
	C1325.509155,1349.630127 1333.913574,1356.025024 1342.875610,1361.301025 
	C1357.180908,1369.722534 1365.026367,1383.625244 1373.487061,1396.998657 
	C1382.748169,1411.636963 1387.761841,1427.976440 1390.671753,1444.792236 
	C1393.114990,1458.911377 1393.578003,1473.207764 1392.296509,1487.710571 
	C1390.565918,1507.296387 1386.103271,1526.137085 1377.398804,1543.439087 
	C1370.777100,1556.600708 1361.504272,1568.499756 1352.814331,1580.529785 
	C1344.021362,1592.701904 1331.982544,1601.562866 1319.623047,1609.759521 
	C1304.135986,1620.030640 1287.175415,1626.157593 1268.458496,1628.210083 
	C1251.447632,1630.075439 1234.724365,1628.960083 1218.486816,1624.703613 
	C1201.864990,1620.346436 1186.170776,1613.109985 1172.222656,1602.695923 
	C1165.393555,1597.597046 1158.238525,1592.825317 1152.013794,1587.060303 
	C1146.884521,1582.309692 1142.392944,1576.651245 1138.553467,1570.783569 
	C1133.921021,1563.703857 1129.950073,1556.135010 1126.273193,1548.498413 
	C1119.660889,1534.765625 1115.859375,1520.401123 1115.837280,1504.894653 
	C1115.815674,1489.796021 1116.363159,1474.823853 1121.382446,1460.542969 
	C1125.254517,1449.526489 1130.094971,1438.817871 1135.015625,1428.209351 
	C1143.435181,1410.057617 1154.968506,1394.039673 1169.353027,1380.089844 
	C1170.361694,1379.111694 1170.983276,1377.734375 1172.309326,1375.762695 
	C1156.853760,1381.191650 1141.646606,1382.855957 1126.374268,1381.841919 
	C1107.406250,1380.582397 1090.098511,1374.174072 1074.844727,1362.417114 
	C1053.963379,1346.322388 1042.193970,1324.425537 1035.530273,1299.698486 
	C1030.840942,1282.298218 1029.851318,1264.412964 1031.821289,1246.271484 
	C1033.975708,1226.432007 1039.367676,1207.771240 1048.981567,1190.379272 
	C1054.673340,1180.082764 1060.940308,1170.188843 1070.036377,1162.285400 
	C1075.345459,1157.672241 1079.949219,1152.207886 1084.602539,1146.892090 
	C1088.437622,1142.510986 1093.664917,1143.761597 1098.323486,1143.089478 
	C1110.982788,1141.263184 1123.796631,1140.391357 1136.378662,1138.173706 
	C1153.092041,1135.228027 1169.643921,1131.366333 1186.630615,1127.700928 
z"></path>
	<path fill="#af7557" opacity="1.000000" stroke="none" d="
M523.950806,1466.642456 
	C524.538818,1433.724609 534.646729,1404.761108 555.049072,1379.341553 
	C567.540527,1363.778198 583.476501,1353.308960 601.321045,1344.874390 
	C620.411194,1335.851074 640.482178,1333.875244 660.959473,1335.185669 
	C675.004639,1336.084351 688.462830,1340.219482 701.198120,1346.567871 
	C719.008850,1355.446533 735.096558,1366.682617 748.641663,1381.250000 
	C762.534119,1396.190918 774.055542,1412.761230 783.298584,1431.109497 
	C789.451416,1443.323608 794.117859,1455.964966 797.343079,1469.033447 
	C803.043091,1492.129883 802.929810,1515.525757 794.642944,1537.959229 
	C790.516663,1549.129517 783.503174,1559.240723 777.720886,1569.790039 
	C768.543640,1586.533203 753.123474,1597.044556 737.931641,1607.050537 
	C721.983826,1617.554321 704.299622,1625.225098 684.783691,1626.982300 
	C675.097717,1627.854492 665.358948,1629.079834 655.675659,1628.843872 
	C636.389526,1628.374146 618.373169,1622.935791 601.723389,1612.973633 
	C586.516357,1603.874634 573.272583,1592.391602 561.805237,1579.081177 
	C550.376831,1565.816040 541.318054,1550.849487 535.018677,1534.413208 
	C528.278992,1516.827759 523.694092,1498.763428 523.990112,1479.730347 
	C524.055481,1475.524536 523.943054,1471.316162 523.950806,1466.642456 
z"></path>
	<path fill="#392B2E" opacity="1.000000" stroke="none" d="
M1372.168091,1553.887085 
	C1368.698242,1558.398071 1365.045532,1562.781372 1361.789917,1567.441895 
	C1347.130981,1588.427368 1328.429810,1604.685425 1305.670044,1616.414307 
	C1294.079712,1622.387451 1281.770996,1625.325195 1268.950928,1627.108765 
	C1251.942261,1629.474609 1235.173096,1627.891968 1218.828857,1623.696045 
	C1203.519043,1619.765625 1189.067505,1613.152222 1175.934204,1604.130249 
	C1171.597046,1601.150635 1167.801147,1597.392334 1163.538818,1594.291016 
	C1160.299316,1591.933960 1156.716797,1590.047119 1153.275391,1587.970215 
	C1153.004639,1587.807007 1152.490479,1587.900635 1152.346191,1587.694946 
	C1147.785034,1581.189453 1143.220337,1574.685913 1138.746948,1568.120239 
	C1137.643433,1566.500732 1137.003296,1564.565063 1135.895508,1562.949219 
	C1127.729858,1551.039062 1122.028931,1537.978638 1118.890625,1523.971436 
	C1115.932861,1510.769531 1116.418701,1497.321167 1117.734863,1483.885864 
	C1119.273926,1468.174438 1124.393555,1453.523438 1130.814819,1439.321045 
	C1138.371460,1422.607178 1147.231689,1406.621460 1159.610718,1392.847656 
	C1164.458740,1387.453369 1169.189331,1381.953491 1173.973389,1376.501709 
	C1173.809692,1376.071045 1173.645996,1375.640503 1173.482300,1375.209839 
	C1171.712646,1375.415039 1169.853760,1375.339478 1168.187378,1375.869385 
	C1153.409912,1380.567993 1138.034912,1382.543945 1122.910278,1380.659302 
	C1103.429321,1378.231689 1085.530518,1370.786987 1070.622437,1357.186157 
	C1050.089355,1338.453491 1038.705688,1314.744019 1034.302612,1287.916260 
	C1027.993530,1249.475220 1034.838135,1213.170654 1056.542725,1180.453369 
	C1063.291748,1170.279907 1072.248535,1161.597656 1079.546265,1151.752197 
	C1084.648315,1144.869141 1091.726807,1144.803833 1098.906494,1143.984619 
	C1111.728271,1142.521606 1124.550537,1141.043457 1137.344604,1139.360229 
	C1160.763672,1136.279053 1183.552002,1130.384766 1205.955811,1123.077393 
	C1216.650513,1119.589111 1227.283813,1115.702393 1237.511475,1111.044434 
	C1251.228516,1104.797241 1264.597412,1097.765503 1277.960938,1090.774536 
	C1282.187622,1088.563354 1285.964111,1085.467041 1289.857910,1082.653076 
	C1292.153076,1080.994629 1294.172485,1080.886475 1295.790405,1083.342529 
	C1297.691406,1086.228394 1299.877075,1089.058594 1301.101807,1092.235718 
	C1307.551514,1108.970459 1313.688232,1125.852051 1316.315796,1143.689453 
	C1317.930786,1154.653076 1319.186890,1165.702515 1319.889038,1176.758789 
	C1320.679321,1189.207275 1321.790894,1201.799438 1318.003540,1214.016968 
	C1314.708130,1224.647705 1311.341553,1235.271484 1307.523193,1245.721680 
	C1301.444336,1262.357544 1292.755981,1277.634399 1282.096558,1291.766479 
	C1270.775146,1306.776245 1258.174072,1320.585205 1243.312988,1332.202881 
	C1241.123291,1333.914551 1238.711060,1335.341553 1236.401855,1336.900391 
	C1236.937134,1337.443726 1237.472534,1337.987061 1238.007812,1338.530396 
	C1244.706299,1337.998779 1251.396851,1337.204712 1258.105225,1337.005127 
	C1265.671509,1336.780151 1273.443115,1336.058472 1280.785034,1337.406860 
	C1291.972656,1339.461426 1303.269653,1342.118530 1313.766724,1346.377075 
	C1323.110352,1350.167480 1331.432251,1356.478027 1340.200073,1361.684814 
	C1341.052368,1362.191040 1341.804932,1363.057739 1342.711548,1363.250732 
	C1352.356934,1365.303711 1356.575073,1372.789185 1360.964478,1380.536987 
	C1365.770752,1389.020630 1371.807495,1396.811768 1376.542480,1405.330078 
	C1384.367554,1419.406982 1388.622070,1434.809937 1390.839478,1450.668579 
	C1394.376099,1475.962646 1392.342773,1500.895020 1383.998047,1525.099487 
	C1381.416992,1532.585815 1377.678711,1539.670044 1374.552246,1546.973511 
	C1373.846069,1548.623169 1373.482178,1550.419312 1372.780518,1552.640137 
	C1372.248047,1553.264893 1372.104004,1553.516479 1372.168091,1553.887085 
M1292.841919,1113.630981 
	C1291.889526,1110.820557 1291.141968,1107.917969 1289.929810,1105.224487 
	C1288.583008,1102.232300 1286.667358,1101.054688 1283.245361,1103.199219 
	C1261.457886,1116.852661 1237.941895,1126.789551 1213.717163,1135.185425 
	C1187.883057,1144.139160 1161.277344,1149.845825 1134.317993,1153.972412 
	C1123.401367,1155.643188 1112.349731,1156.427612 1101.427002,1158.065796 
	C1098.398193,1158.520020 1095.182739,1160.070190 1092.807983,1162.031738 
	C1088.507446,1165.583862 1084.905151,1169.965820 1080.777832,1173.746338 
	C1071.573853,1182.177124 1065.455566,1192.754761 1059.833252,1203.636963 
	C1052.412964,1217.999512 1048.518677,1233.298828 1046.813843,1249.440796 
	C1045.170776,1264.998779 1046.038086,1280.200073 1050.249756,1295.093994 
	C1057.632080,1321.200684 1070.762207,1343.158691 1095.390381,1357.023926 
	C1112.187256,1366.480225 1129.886719,1368.584229 1148.393799,1365.635620 
	C1162.880859,1363.327393 1176.490356,1357.854004 1189.377808,1351.065674 
	C1209.488403,1340.472656 1228.002441,1327.524658 1244.663086,1311.892944 
	C1257.244019,1300.089111 1268.723755,1287.371094 1277.835938,1272.799805 
	C1289.282715,1254.495728 1298.017944,1234.901978 1301.256958,1213.314697 
	C1302.846680,1202.719482 1304.426514,1192.058105 1304.879150,1181.378784 
	C1305.211914,1173.528076 1303.853516,1165.583618 1302.988892,1157.709351 
	C1301.362061,1142.894897 1298.382812,1128.366699 1292.841919,1113.630981 
M1358.430298,1403.010620 
	C1352.511475,1392.532349 1345.014526,1383.449097 1335.511108,1375.947388 
	C1313.639648,1358.683472 1289.462280,1349.213501 1261.008667,1350.772095 
	C1244.348755,1351.684814 1229.148071,1356.458618 1214.884155,1364.222412 
	C1196.348999,1374.311157 1181.105469,1388.680664 1167.932373,1404.982422 
	C1153.969116,1422.261963 1144.128418,1441.951904 1137.097168,1463.023438 
	C1135.691528,1467.235352 1133.513916,1471.409668 1133.179810,1475.716553 
	C1132.300537,1487.050903 1131.217896,1498.534790 1132.166992,1509.794800 
	C1132.973511,1519.363037 1135.390381,1529.162842 1139.079102,1538.035400 
	C1144.754883,1551.687622 1153.098511,1563.764038 1163.672241,1574.554932 
	C1174.206909,1585.305908 1186.161255,1593.991577 1199.234497,1600.592896 
	C1217.310913,1609.720581 1236.807739,1614.229370 1257.478394,1613.359985 
	C1274.087524,1612.661255 1289.532471,1608.680420 1303.971069,1600.657227 
	C1321.815796,1590.741333 1336.180176,1576.882935 1348.484375,1560.762573 
	C1360.004761,1545.669067 1367.688843,1528.567261 1372.492920,1510.430908 
	C1377.123291,1492.950073 1378.470459,1475.044556 1376.196655,1456.798706 
	C1373.832031,1437.822510 1368.901489,1419.936768 1358.430298,1403.010620 
z"></path>
	<path fill="#3B2C2F" opacity="1.000000" stroke="none" d="
M545.937256,1556.268311 
	C542.786621,1549.227051 539.510620,1542.238770 536.512695,1535.133179 
	C530.988464,1522.040039 527.574463,1508.381226 525.975037,1494.260010 
	C525.773682,1492.482056 525.270325,1490.738525 525.013428,1488.097412 
	C525.047913,1477.422729 524.975891,1467.629395 524.903870,1457.836182 
	C526.252869,1450.227051 527.027527,1442.458984 529.080200,1435.044678 
	C532.495605,1422.708374 535.989319,1410.279907 543.048462,1399.359253 
	C549.400574,1389.532715 555.693298,1379.634521 562.697693,1370.281128 
	C565.175964,1366.971680 569.625732,1365.098267 573.268250,1362.710938 
	C578.100464,1359.543945 583.065796,1356.580200 587.900574,1353.416992 
	C610.168274,1338.847412 634.954102,1333.975464 660.938232,1336.162109 
	C680.591431,1337.816040 698.995178,1344.564331 715.183533,1356.133301 
	C725.247620,1363.325684 735.440186,1370.584351 744.343201,1379.101196 
	C759.995911,1394.074585 772.755066,1411.550049 781.815063,1431.273315 
	C787.507385,1443.665283 792.680237,1456.507080 796.161377,1469.656494 
	C802.081665,1492.019531 801.963989,1514.823120 793.695740,1536.642212 
	C789.471191,1547.790283 782.665283,1557.960693 777.018005,1568.568726 
	C774.990173,1572.377808 773.691162,1576.948486 770.741272,1579.815063 
	C764.633667,1585.750122 757.539429,1590.654907 751.037354,1596.201904 
	C739.779724,1605.806152 727.195190,1613.371338 713.361816,1618.224487 
	C702.252930,1622.121704 690.598877,1624.801636 678.978394,1626.825317 
	C661.465088,1629.875488 643.820496,1628.582520 627.074097,1622.858643 
	C616.323059,1619.183960 606.054321,1613.614136 596.279846,1607.716309 
	C588.166626,1602.820923 580.694397,1596.638794 573.680481,1590.215942 
	C567.925049,1584.945435 563.112000,1578.604126 558.160706,1572.510376 
	C554.138672,1567.560547 550.531372,1562.273682 546.318604,1556.900879 
	C545.897156,1556.665405 545.937256,1556.268311 545.937256,1556.268311 
M749.411926,1577.927979 
	C754.234192,1572.447632 759.305908,1567.164673 763.830566,1561.448853 
	C775.890198,1546.214478 782.812195,1528.596436 784.870850,1509.488403 
	C787.045044,1489.308105 782.598999,1469.755371 774.964172,1451.150757 
	C765.373230,1427.779785 752.017700,1406.789917 733.664124,1389.084595 
	C720.627869,1376.509033 706.381287,1365.924194 689.668701,1358.769409 
	C676.681091,1353.209229 663.005737,1350.116577 649.041138,1350.174927 
	C637.344116,1350.223877 625.676392,1352.100220 614.499939,1356.535889 
	C597.273926,1363.372437 581.929016,1372.600830 569.659912,1386.808838 
	C548.692566,1411.089478 539.954834,1439.740356 539.040894,1471.157227 
	C538.825500,1478.561523 540.010986,1486.030884 540.848816,1493.436768 
	C543.416443,1516.132324 551.677673,1536.751587 564.232849,1555.686157 
	C573.004517,1568.914795 583.557983,1580.654785 596.574219,1589.756470 
	C605.513855,1596.007446 614.702148,1602.509644 624.740295,1606.453369 
	C644.182312,1614.091553 664.426086,1615.864136 685.303223,1611.329224 
	C709.616760,1606.047974 730.777954,1595.341919 749.411926,1577.927979 
z"></path>
	<path fill="#F0CAA1" opacity="1.000000" stroke="none" d="
M1302.809570,1549.830566 
	C1292.179932,1559.889160 1280.745239,1568.343384 1266.522217,1571.035278 
	C1252.448120,1573.699097 1238.188477,1572.672607 1225.055786,1566.414673 
	C1216.331299,1562.257202 1207.188721,1557.939697 1200.116943,1551.594604 
	C1189.599487,1542.157959 1180.413818,1531.554077 1175.522217,1517.250244 
	C1169.087402,1498.434204 1174.282715,1481.599854 1180.799683,1464.685303 
	C1187.555176,1447.151855 1198.017822,1431.698364 1211.380737,1418.628784 
	C1226.728882,1403.617798 1244.605713,1392.007446 1266.804077,1391.529541 
	C1282.018066,1391.202148 1296.071411,1397.066162 1308.170532,1406.639404 
	C1319.737549,1415.791504 1327.014038,1428.283936 1331.321655,1441.842896 
	C1337.225830,1460.427124 1337.664429,1479.565674 1332.668091,1498.797119 
	C1327.520508,1518.609985 1317.917358,1535.560059 1302.809570,1549.830566 
z"></path>
	<path fill="#F0CAA1" opacity="1.000000" stroke="none" d="
M733.034973,1458.913452 
	C739.772461,1472.671997 743.780029,1486.746338 743.872437,1501.772217 
	C743.939941,1512.756470 739.452698,1522.220337 734.196838,1531.603638 
	C728.419006,1541.918701 720.008545,1549.800415 710.702393,1556.259155 
	C698.563049,1564.684326 685.119080,1570.883911 669.861572,1571.958252 
	C659.483459,1572.688843 649.234314,1572.096436 639.781799,1567.747070 
	C632.909424,1564.585083 626.530945,1560.254272 620.210144,1556.028931 
	C617.083679,1553.939331 614.493835,1551.000732 611.816040,1548.293213 
	C595.866821,1532.166260 585.776733,1513.113281 581.998474,1490.569458 
	C578.546570,1469.973022 580.494751,1450.044556 589.343323,1431.303345 
	C598.414917,1412.089966 613.421814,1399.332642 634.468811,1393.908325 
	C652.436218,1389.277832 668.499939,1393.405762 684.020996,1402.494507 
	C696.985779,1410.086060 707.660156,1420.072144 716.187561,1432.274536 
	C722.130371,1440.778442 727.368103,1449.774902 733.034973,1458.913452 
z"></path>
</svg>
