<svg version="1.1" id="Layer_1"
	xmlns="http://www.w3.org/2000/svg"
	xmlns:xlink="http://www.w3.org/1999/xlink" x="0px" y="0px" width="600" viewBox="0 0 1920 1920" enable-background="new 0 0 1920 1920" xml:space="preserve" height="600">
	<path fill="#af7557" opacity="1.000000" stroke="none" d="
M545.164124,1556.068726 
	C534.975037,1537.187256 527.140259,1517.497070 525.020874,1495.934814 
	C524.134460,1486.916626 522.880798,1477.832886 523.168945,1468.822876 
	C523.704407,1452.078247 525.975403,1435.438843 532.074158,1419.700562 
	C537.386841,1405.990601 543.479004,1392.598755 553.185608,1381.224487 
	C555.593628,1378.402832 555.936157,1375.348389 555.475647,1371.303711 
	C554.477478,1362.537842 554.873108,1353.594604 554.985474,1344.727417 
	C555.060730,1338.785645 555.095642,1332.760376 556.076050,1326.928467 
	C559.002563,1309.520752 561.976318,1292.100220 565.742493,1274.862061 
	C568.062012,1264.245239 571.802246,1253.933350 575.032837,1243.524292 
	C576.176697,1239.838501 577.700378,1236.270630 578.671753,1233.665161 
	C569.583740,1230.022095 560.792480,1226.650513 552.130615,1222.973999 
	C546.018738,1220.379761 539.772827,1217.878052 534.139099,1214.431885 
	C525.414185,1209.094849 516.834595,1203.401245 508.807465,1197.079224 
	C502.034485,1191.744873 495.843658,1185.576538 489.910736,1179.290771 
	C478.559052,1167.264404 468.130219,1154.345093 460.515656,1139.662109 
	C452.948792,1125.071045 445.602264,1110.174927 440.206970,1094.698608 
	C433.993530,1076.875488 429.380188,1058.413574 425.261963,1039.963623 
	C421.132172,1021.462036 421.317841,1002.441833 422.131958,983.580261 
	C422.712311,970.134460 425.911224,956.917175 431.409302,944.719360 
	C436.204498,934.080872 442.215302,923.895264 451.901611,916.388794 
	C460.475037,909.744934 469.752869,904.816223 480.148438,901.943420 
	C484.227844,900.816162 488.350464,899.758179 492.520020,899.075134 
	C495.249146,898.628174 496.035919,898.204834 495.182556,895.039795 
	C490.643555,878.204834 485.985748,861.373657 482.363739,844.329712 
	C480.017914,833.291138 478.734833,821.925964 478.109833,810.644348 
	C476.963959,789.960693 475.830475,769.213440 476.261475,748.525391 
	C476.606232,731.977905 478.343018,715.318115 481.147034,698.997742 
	C484.931915,676.968445 489.528992,655.001831 495.303009,633.416382 
	C499.629852,617.240967 505.906403,601.525696 512.166809,585.947876 
	C517.464355,572.766235 523.833923,560.003235 530.020081,547.195496 
	C533.607483,539.768188 537.769470,532.618408 541.877136,524.963196 
	C537.924316,522.179077 533.989197,519.607788 530.272827,516.751831 
	C519.506470,508.478210 511.009735,498.257935 504.674896,486.250244 
	C497.181152,472.045929 493.026428,457.114075 491.732697,440.910156 
	C490.019196,419.448364 494.672119,399.397644 502.294617,379.881317 
	C505.276123,372.247589 510.519897,365.466492 514.970825,358.447662 
	C518.362976,353.098450 521.455505,347.309601 525.872070,342.912384 
	C534.723450,334.099884 543.831604,325.339752 553.891785,318.010254 
	C562.349060,311.848541 571.936523,306.799622 581.698059,302.983063 
	C592.691650,298.684814 604.262329,295.091461 615.902832,293.400177 
	C633.199463,290.887085 650.665649,291.611938 667.443481,297.740967 
	C672.957397,299.755249 678.832397,301.182861 683.842346,304.086456 
	C692.583374,309.152588 701.883362,314.045441 708.931580,321.043091 
	C717.944946,329.991760 724.959534,340.953705 732.908691,351.141968 
	C743.175049,347.218811 754.360291,342.059906 766.057922,338.667816 
	C787.150085,332.551544 808.400330,326.794250 829.869934,322.229431 
	C845.056396,319.000519 860.718079,318.020782 876.158875,315.971069 
	C902.135559,312.522766 928.277527,313.512939 954.281128,314.339996 
	C974.060852,314.969086 993.876038,317.857788 1013.435120,321.163330 
	C1035.950928,324.968658 1058.427368,329.483673 1080.497925,335.296539 
	C1098.537720,340.047791 1116.204956,346.528809 1133.581299,353.396881 
	C1151.654053,360.540344 1169.518555,368.400970 1186.839478,377.197784 
	C1201.245117,384.513977 1214.905151,393.367004 1228.572510,402.047852 
	C1241.258789,410.105530 1253.517822,418.836029 1266.024170,427.310486 
	C1268.549683,423.145660 1271.109497,418.616364 1273.962402,414.279785 
	C1281.091675,403.442535 1289.333008,393.954071 1300.524658,386.670410 
	C1309.191650,381.029694 1317.801147,375.612305 1327.673096,372.869049 
	C1335.968262,370.563995 1344.608276,369.453278 1353.130615,368.021942 
	C1367.894897,365.542328 1382.301025,368.129761 1396.418091,372.065033 
	C1413.562500,376.844208 1429.732178,384.104462 1443.204590,395.925751 
	C1452.849976,404.389099 1462.518188,413.194672 1470.349487,423.267731 
	C1481.175659,437.192505 1489.176514,452.777344 1494.412842,470.056549 
	C1499.764282,487.715363 1501.258667,505.528351 1499.676025,523.385132 
	C1498.076050,541.439087 1492.887085,558.940796 1482.256104,574.177307 
	C1472.248657,588.520386 1460.132568,600.247192 1444.169800,608.378296 
	C1432.388794,614.379211 1420.145020,617.773560 1406.614258,620.641907 
	C1408.081909,624.905029 1409.702271,629.072510 1410.956543,633.347473 
	C1416.695068,652.906189 1423.161865,672.302490 1427.758423,692.130066 
	C1431.924927,710.102234 1434.127686,728.538269 1436.989624,746.802185 
	C1440.910034,771.822327 1440.971924,797.110352 1439.679199,822.228088 
	C1438.637451,842.470764 1435.574219,862.718872 1431.880859,882.682007 
	C1428.748047,899.615723 1423.846802,916.269470 1418.911621,932.803406 
	C1416.297119,941.562683 1411.178223,949.573120 1408.550171,958.329895 
	C1404.228271,972.730225 1396.347168,985.260376 1389.229126,998.187744 
	C1385.220093,1005.468689 1380.271973,1012.252991 1375.497437,1019.086731 
	C1370.174805,1026.705322 1365.098877,1034.595459 1358.962036,1041.522705 
	C1349.886597,1051.766724 1340.358154,1061.687622 1330.288452,1070.947876 
	C1322.276001,1078.316162 1313.086670,1084.394409 1304.644409,1091.319214 
	C1303.639771,1092.143188 1303.446655,1094.869263 1303.900146,1096.413330 
	C1307.482178,1108.610840 1312.218384,1120.545410 1314.818481,1132.934570 
	C1317.567993,1146.034546 1318.165771,1159.573730 1320.082031,1172.866333 
	C1321.030151,1179.444214 1322.208374,1186.112183 1324.354736,1192.371582 
	C1332.060791,1214.845825 1340.583984,1237.044067 1348.057373,1259.592041 
	C1351.585815,1270.237793 1353.727905,1281.381104 1355.966309,1292.406738 
	C1358.595703,1305.358276 1361.688721,1318.349976 1362.657837,1331.466309 
	C1363.630615,1344.633545 1363.095825,1358.081421 1361.482788,1371.192261 
	C1360.779297,1376.910400 1362.323120,1380.656494 1365.266357,1384.299072 
	C1376.465576,1398.158936 1383.009277,1414.250000 1387.853516,1431.075439 
	C1392.926025,1448.693115 1394.082153,1466.882568 1392.837280,1485.048706 
	C1391.763672,1500.716064 1389.184570,1516.254517 1382.661865,1530.818848 
	C1379.472168,1537.941162 1376.395142,1545.113770 1372.882935,1552.813843 
	C1371.671509,1554.388794 1370.811157,1555.388794 1370.022339,1556.442261 
	C1363.200928,1565.552490 1357.099365,1575.331909 1349.381348,1583.603882 
	C1341.654053,1591.885986 1332.601440,1599.031616 1323.624146,1606.026489 
	C1304.728882,1620.749023 1282.971558,1627.947754 1259.133057,1628.978149 
	C1243.564331,1629.651123 1228.338867,1627.571533 1213.505615,1622.773926 
	C1196.298340,1617.208374 1180.069092,1609.531982 1166.401611,1597.615723 
	C1159.084961,1591.236572 1151.095947,1587.267334 1141.783325,1586.006348 
	C1118.294189,1582.826294 1094.813965,1579.398438 1071.224854,1577.199585 
	C1053.563232,1575.553345 1035.740356,1575.215576 1017.984375,1575.107422 
	C995.541626,1574.970703 973.093079,1575.608643 950.649048,1576.022949 
	C944.360168,1576.139038 938.077332,1576.623047 931.793701,1576.973755 
	C907.938049,1578.305298 884.083069,1579.649658 860.228027,1580.992676 
	C853.612305,1581.365112 846.980530,1581.565430 840.385437,1582.166138 
	C827.709473,1583.320435 815.060181,1584.763794 802.389160,1585.976196 
	C790.651855,1587.099365 778.876343,1587.869873 767.170166,1589.243408 
	C763.566650,1589.666260 759.467163,1590.727539 756.736145,1592.918823 
	C740.850464,1605.665649 723.754150,1616.008423 704.274780,1622.363159 
	C684.152344,1628.927856 663.570496,1631.121460 642.813782,1627.631348 
	C608.366577,1621.839478 581.979614,1602.402466 560.164185,1576.092285 
	C555.119263,1570.007935 550.779968,1563.338501 546.022217,1556.732178 
	C545.728577,1556.281982 545.473755,1556.129517 545.164124,1556.068726 
z"></path>
	<path fill="#3B2D30" opacity="1.000000" stroke="none" d="
M939.922729,314.915771 
	C1060.107910,320.402405 1170.263428,354.448730 1266.218872,429.279083 
	C1272.830322,414.117859 1283.415039,401.955902 1296.044434,391.007538 
	C1307.477783,381.096130 1320.490479,374.744446 1334.803589,371.488068 
	C1350.853882,367.836426 1367.224609,368.087982 1383.641724,370.501678 
	C1394.747314,372.134430 1405.281616,375.301910 1415.350708,379.854919 
	C1421.972412,382.849060 1427.748291,387.673706 1434.286987,390.900452 
	C1445.590820,396.478882 1454.013306,405.452087 1462.101196,414.511963 
	C1469.265137,422.536560 1475.714355,431.459076 1481.013916,440.815125 
	C1486.311035,450.167206 1490.531738,460.309662 1493.838501,470.553009 
	C1496.610107,479.138397 1498.319336,488.317841 1498.807495,497.325928 
	C1499.421875,508.662781 1499.620483,520.322449 1497.666748,531.432800 
	C1494.102539,551.702087 1487.034302,570.567566 1471.972900,585.934753 
	C1464.301392,593.761963 1456.335938,600.698364 1447.028687,606.386047 
	C1435.810303,613.241638 1423.465088,616.529236 1410.779785,618.910400 
	C1405.779053,619.849060 1405.656738,620.255676 1407.189087,624.892212 
	C1412.028931,639.536926 1417.127686,654.131165 1421.094849,669.019775 
	C1425.507202,685.579468 1429.427979,702.329346 1432.371704,719.204163 
	C1435.101562,734.853271 1436.522705,750.751587 1438.023315,766.587280 
	C1439.102051,777.971619 1440.283325,789.473572 1439.785767,800.851685 
	C1438.917969,820.707642 1437.632080,840.623291 1434.947388,860.299072 
	C1432.483276,878.360535 1428.826294,896.376160 1424.093140,913.981384 
	C1418.224976,935.807983 1410.748291,957.242676 1399.689819,977.115173 
	C1390.973267,992.778870 1382.223877,1008.482056 1372.390503,1023.445740 
	C1365.937012,1033.266235 1357.879517,1042.123291 1349.915283,1050.840576 
	C1336.105591,1065.955811 1320.843384,1079.508179 1304.004028,1091.253662 
	C1302.932861,1092.000854 1302.316162,1094.915771 1302.869141,1096.250000 
	C1312.315674,1119.046021 1317.980591,1142.717773 1318.955688,1167.359619 
	C1319.454468,1179.967041 1323.601440,1191.290283 1328.072632,1202.856812 
	C1334.510986,1219.512573 1340.071411,1236.537964 1345.296997,1253.622681 
	C1349.692505,1267.993408 1353.655029,1282.552734 1356.726562,1297.254883 
	C1359.293457,1309.541626 1360.098267,1322.186157 1362.039673,1334.616699 
	C1364.117676,1347.922119 1362.663330,1361.107544 1360.569946,1374.150146 
	C1359.645142,1379.911865 1363.473022,1382.363159 1365.875122,1385.697510 
	C1378.841431,1403.696045 1386.732300,1423.707031 1389.969360,1445.518066 
	C1391.447388,1455.476440 1393.120605,1465.635132 1392.645630,1475.604736 
	C1391.743530,1494.533691 1389.943237,1513.482910 1381.464966,1531.024780 
	C1378.132935,1537.918701 1375.419067,1545.111450 1371.896484,1552.568115 
	C1364.380127,1562.403931 1358.056274,1572.432495 1350.275879,1581.163208 
	C1327.904663,1606.267090 1301.279175,1623.972778 1266.659546,1627.410400 
	C1245.584717,1629.503052 1225.341187,1626.671387 1205.718140,1619.142578 
	C1189.962891,1613.097534 1175.441284,1604.902954 1162.807129,1593.487793 
	C1160.107300,1591.048218 1156.561279,1588.879883 1153.067993,1588.103760 
	C1140.661255,1585.347656 1128.130371,1583.125488 1115.607544,1580.923096 
	C1086.229858,1575.756592 1056.498901,1574.732178 1026.788574,1574.271362 
	C1003.666138,1573.912720 980.521057,1574.574463 957.393555,1575.106079 
	C937.288940,1575.568359 917.190491,1576.383667 897.097717,1577.240479 
	C886.822083,1577.678711 876.554199,1578.418457 866.301819,1579.254883 
	C847.621399,1580.778687 828.950745,1582.427246 810.284546,1584.117554 
	C795.910400,1585.419189 781.535828,1586.743042 767.192078,1588.332642 
	C763.683105,1588.721436 759.822876,1589.457153 756.944946,1591.308960 
	C750.399414,1595.520630 744.552917,1600.805908 738.085327,1605.153564 
	C717.404358,1619.056519 694.438721,1626.546875 669.640076,1628.021851 
	C649.626404,1629.212158 630.333374,1625.850830 612.158386,1617.003784 
	C591.826355,1607.106689 574.948059,1592.911255 560.832458,1575.404053 
	C555.554260,1568.857544 550.881348,1561.823120 545.932434,1555.011230 
	C541.830627,1545.873901 537.504639,1536.829102 533.683350,1527.575928 
	C528.833191,1515.831543 526.743835,1503.417114 525.746826,1490.799316 
	C525.696960,1490.168213 525.300720,1489.564209 525.091003,1488.080933 
	C525.044128,1477.422241 524.971985,1467.630127 524.899780,1457.838135 
	C526.834534,1448.314697 528.598328,1438.752441 530.743713,1429.276733 
	C534.054199,1414.654175 540.045410,1401.143555 548.414368,1388.701294 
	C549.788635,1386.658081 551.022339,1384.401123 552.805908,1382.774658 
	C558.206726,1377.849731 557.567017,1372.021606 555.944092,1365.023804 
	C555.970886,1355.748901 555.923096,1347.363159 555.875244,1338.977295 
	C556.579285,1333.425781 557.123291,1327.848389 558.021118,1322.328369 
	C559.812561,1311.314331 561.462646,1300.259766 563.802307,1289.357544 
	C565.932251,1279.432617 568.892761,1269.685669 571.496948,1259.862915 
	C573.255188,1253.231201 574.975037,1246.588135 576.839722,1239.986328 
	C577.265076,1238.480347 578.038452,1236.992065 578.966675,1235.726685 
	C580.552368,1233.565308 579.891602,1232.666626 577.574768,1231.833496 
	C567.554138,1228.230591 557.206909,1225.257568 547.693237,1220.596436 
	C536.836731,1215.277344 526.338074,1208.981445 516.434631,1202.039062 
	C508.113495,1196.205811 500.414795,1189.282349 493.283203,1182.014526 
	C486.778931,1175.385986 480.937683,1167.971191 475.646240,1160.320679 
	C467.916046,1149.144165 459.849884,1137.977783 453.925873,1125.832275 
	C447.052155,1111.739624 442.159576,1096.658325 436.770721,1081.873657 
	C434.255157,1074.972168 432.011536,1067.867065 430.672455,1060.663330 
	C428.066223,1046.642822 425.899200,1032.523682 424.116608,1018.374084 
	C423.147125,1010.678772 422.652618,1002.790405 423.173431,995.072144 
	C423.927673,983.895691 425.751770,972.788696 427.201355,961.662659 
	C428.674988,950.352234 433.291351,940.248779 439.717133,930.993164 
	C445.656464,922.438293 453.443024,916.045044 462.311768,910.360901 
	C471.959137,904.177673 482.605957,902.418884 493.228973,900.034546 
	C496.270386,899.351807 497.017395,898.718018 496.038727,895.495300 
	C492.909271,885.190247 489.699249,874.862244 487.477448,864.341003 
	C484.796204,851.643860 483.061462,838.745361 480.975433,825.924500 
	C477.022644,801.629700 476.539246,777.120300 477.073334,752.606445 
	C477.310059,741.741455 478.610626,730.877014 479.862091,720.062561 
	C481.322479,707.442993 483.057556,694.846680 485.048401,682.299805 
	C486.668030,672.092590 488.430969,661.872437 490.895111,651.846008 
	C492.936646,643.539185 496.197296,635.538513 498.725739,627.342957 
	C500.878815,620.364014 502.292664,613.126770 504.841583,606.305725 
	C514.378174,580.785217 525.006531,555.735352 538.644958,532.071228 
	C542.786316,524.885559 542.661926,525.077515 535.881958,520.233521 
	C527.567810,514.293457 520.247437,507.532410 513.998047,499.099640 
	C506.921478,489.550781 501.000305,479.585327 497.683075,468.418335 
	C495.085205,459.673096 493.844666,450.383972 493.146271,441.248962 
	C492.160095,428.350159 492.717804,415.286499 496.156982,402.794586 
	C499.514984,390.597534 502.022034,377.946625 509.463196,367.187714 
	C513.073242,361.968048 515.816284,356.044769 519.953796,351.316895 
	C527.140869,343.104340 535.123657,335.589996 542.739746,327.750732 
	C552.435120,317.771210 564.287048,310.891327 576.811584,305.437775 
	C592.238953,298.720184 608.316956,293.577118 625.438354,294.112366 
	C637.790161,294.498535 650.276489,294.872375 662.402527,296.979584 
	C674.373596,299.059845 684.961670,305.009460 695.441528,311.638336 
	C706.698669,318.758850 714.928772,328.250092 722.856384,338.284698 
	C726.221619,342.544403 728.244690,347.864502 730.851379,352.654205 
	C744.145508,347.631042 757.009399,341.783936 770.443970,337.922180 
	C791.326721,331.919525 812.462280,326.601501 833.751282,322.275909 
	C848.074280,319.365753 862.829834,318.497192 877.424377,317.040588 
	C887.300720,316.054901 897.233643,315.634766 908.075256,314.951294 
	C919.313782,314.932495 929.618225,314.924133 939.922729,314.915771 
M1172.261719,1378.423340 
	C1173.304688,1377.101807 1174.347534,1375.780273 1176.147949,1373.498901 
	C1172.257446,1374.583984 1169.583862,1375.307861 1166.922852,1376.075439 
	C1151.174561,1380.617065 1135.164673,1382.007812 1118.178467,1379.733398 
	C1091.225952,1375.396240 1070.447144,1361.220947 1054.855225,1339.274902 
	C1042.272583,1321.564331 1035.417603,1301.526001 1033.013184,1280.026001 
	C1028.837646,1242.687256 1036.847778,1208.274170 1058.636719,1177.414673 
	C1062.798218,1171.520752 1067.650513,1166.114746 1072.197754,1160.466431 
	C1071.843872,1160.214966 1071.591919,1159.879639 1071.341064,1159.880493 
	C1065.694336,1159.899536 1060.032104,1160.251953 1054.403687,1159.956177 
	C1021.497559,1158.225952 988.565796,1156.802612 955.707886,1154.388672 
	C922.682434,1151.962280 889.723145,1148.604004 856.755981,1145.433594 
	C845.180542,1144.320312 833.667969,1142.552856 821.412354,1140.708740 
	C805.585754,1137.114746 789.615051,1134.050903 773.968079,1129.796631 
	C753.010071,1124.097900 732.292847,1117.510254 711.496887,1111.222778 
	C707.709290,1110.077759 703.953491,1108.739014 700.331604,1107.150635 
	C687.928467,1101.710938 678.665100,1092.338135 670.690735,1081.849609 
	C658.556519,1065.890137 650.037903,1047.794067 641.527222,1029.740112 
	C635.722656,1017.426758 630.620544,1004.688110 623.756958,992.988770 
	C611.325867,971.799622 595.315063,953.433289 575.802612,938.321167 
	C552.219299,920.056213 526.345703,909.476013 495.801910,914.858704 
	C484.085144,916.923645 472.575287,919.994568 463.293610,927.666565 
	C452.932587,936.230591 446.661835,947.739258 442.826782,960.606140 
	C434.505554,988.525024 436.780548,1016.617615 442.531006,1044.431885 
	C445.903900,1060.746460 450.949493,1076.807251 456.426270,1092.570801 
	C462.915436,1111.248169 471.990173,1128.743774 483.331665,1145.104248 
	C498.607025,1167.139282 517.308472,1185.366089 540.120056,1199.464478 
	C552.986877,1207.416626 566.866577,1212.803467 581.382812,1216.738159 
	C584.835327,1217.674072 586.907837,1217.053345 588.713196,1213.196777 
	C593.068542,1203.892578 598.095215,1194.881470 603.300232,1186.015869 
	C604.209839,1184.466797 607.308777,1184.202881 609.396545,1183.345337 
	C610.096802,1185.488159 611.718872,1187.822266 611.321289,1189.737183 
	C610.211426,1195.082764 608.197083,1200.234863 606.660400,1205.498535 
	C598.347351,1233.972534 589.413269,1262.288208 582.032593,1291.002686 
	C577.717468,1307.790649 575.623169,1325.180298 573.110352,1342.384033 
	C572.195435,1348.647583 572.963013,1355.156738 572.963013,1362.623901 
	C575.270691,1361.149658 576.558411,1360.211670 577.946533,1359.458618 
	C588.439270,1353.765625 598.513428,1346.965820 609.567810,1342.727173 
	C623.695251,1337.310303 638.759277,1335.479126 654.106384,1335.973389 
	C674.578308,1336.632812 693.434631,1342.701050 710.651978,1353.105957 
	C722.097168,1360.022583 732.316650,1368.967529 743.373535,1377.591187 
	C746.231018,1380.829956 749.054993,1384.098999 751.951355,1387.302612 
	C773.172791,1410.776123 788.092102,1437.771240 795.820068,1468.419678 
	C799.510620,1483.055786 801.288330,1498.058960 799.023682,1513.342285 
	C796.629761,1529.497681 791.839844,1544.666626 783.143005,1558.556274 
	C780.502319,1562.773438 778.133301,1567.160767 775.258850,1572.128662 
	C778.003845,1572.128662 779.832642,1572.274536 781.632019,1572.106201 
	C802.101685,1570.190308 822.545288,1567.949707 843.039124,1566.349976 
	C865.042908,1564.632324 887.087646,1563.416748 909.124268,1562.151733 
	C923.548401,1561.323486 937.984192,1560.464844 952.425049,1560.214478 
	C972.519226,1559.865967 992.632324,1559.678101 1012.720581,1560.143433 
	C1038.299316,1560.735962 1063.889282,1561.608765 1089.419800,1563.223389 
	C1104.096802,1564.151611 1118.664429,1566.798096 1133.285889,1568.633911 
	C1134.983154,1568.847168 1136.710571,1568.821899 1139.443604,1568.957886 
	C1138.007935,1566.476318 1137.180786,1564.910522 1136.223633,1563.428833 
	C1135.144531,1561.758301 1133.822388,1560.237305 1132.821411,1558.525269 
	C1114.488770,1527.166382 1112.501221,1494.126709 1122.977173,1459.920532 
	C1129.242432,1439.462646 1138.901001,1420.586182 1151.424805,1403.314575 
	C1157.631958,1394.754272 1165.029785,1387.057373 1172.261719,1378.423340 
M1310.528564,1066.665039 
	C1327.706299,1053.557739 1342.141113,1037.691528 1355.318604,1020.758484 
	C1371.409302,1000.082031 1383.789307,977.081482 1394.024658,953.053955 
	C1404.307617,928.914551 1412.489746,903.962463 1416.739502,878.010010 
	C1419.868652,858.899841 1422.554565,839.631287 1423.813599,820.327393 
	C1424.849487,804.447449 1423.525635,788.411194 1423.197388,772.445190 
	C1422.690430,747.784241 1418.463013,723.660400 1413.356934,699.583740 
	C1407.622070,672.542358 1399.614746,646.229309 1389.228027,620.694824 
	C1379.019409,595.597778 1366.997925,571.394592 1352.449219,548.391907 
	C1337.104736,524.131470 1319.623779,501.594543 1299.838379,480.969666 
	C1287.265869,467.863831 1273.467163,455.851135 1259.544556,444.149963 
	C1248.270020,434.674316 1236.323486,425.894592 1224.061401,417.727295 
	C1212.069824,409.740112 1199.620239,402.296509 1186.799316,395.732361 
	C1167.924683,386.068878 1149.028320,376.111145 1129.250610,368.635193 
	C1105.549072,359.676086 1081.137695,352.325470 1056.605103,345.920380 
	C1037.425537,340.912872 1017.683289,337.765900 998.022400,334.984436 
	C980.154297,332.456635 962.077087,330.483795 944.058838,330.169464 
	C920.645264,329.761017 897.186646,330.964447 873.772278,332.024475 
	C863.697510,332.480591 853.605591,333.870422 843.664062,335.638092 
	C829.954468,338.075745 816.293335,340.921722 802.774658,344.254791 
	C791.837036,346.951416 780.921875,350.045105 770.390808,354.009613 
	C756.289490,359.318085 742.225098,364.952332 728.773132,371.699280 
	C712.778992,379.721222 697.049927,388.436798 681.927673,397.993774 
	C658.364990,412.884979 637.204224,430.911774 618.249023,451.370911 
	C606.969055,463.545898 595.280212,475.526611 585.501282,488.860565 
	C573.548828,505.158264 563.311279,522.723145 552.502991,539.847900 
	C540.048706,559.580383 530.750793,580.930847 522.483521,602.605225 
	C512.359131,629.148499 504.849457,656.508423 499.415802,684.492554 
	C494.582581,709.384399 492.354034,734.466248 492.012756,759.677490 
	C491.772583,777.419189 493.414429,795.186279 494.049072,813.780457 
	C495.334625,822.301575 496.070587,830.950562 498.018463,839.317505 
	C502.269531,857.577881 507.125946,875.697693 511.763855,893.867493 
	C512.497803,896.742798 513.603455,898.967224 517.330933,899.131653 
	C531.817749,899.770752 545.478760,903.986633 558.346985,910.327271 
	C588.829712,925.347534 611.992004,948.827026 630.398560,976.723633 
	C639.855591,991.056702 646.311279,1007.352173 654.370361,1022.630493 
	C662.655090,1038.336792 670.657776,1054.243164 679.949585,1069.344727 
	C684.355713,1076.505981 690.494629,1083.651611 697.593872,1087.860962 
	C708.445923,1094.295776 720.555115,1098.942139 732.592773,1102.964600 
	C748.964233,1108.434937 765.659729,1113.053345 782.424133,1117.195557 
	C798.031982,1121.052002 813.819580,1124.393188 829.695984,1126.895874 
	C849.009216,1129.940674 868.468567,1132.151367 887.919556,1134.202637 
	C906.717224,1136.185059 925.578247,1137.587036 944.423889,1139.087524 
	C955.509949,1139.970215 966.627991,1140.447510 977.717957,1141.287964 
	C993.096558,1142.453735 1008.456360,1144.740356 1023.834900,1144.836426 
	C1048.930298,1144.993286 1074.095581,1144.632202 1099.115479,1142.857178 
	C1119.574219,1141.405518 1140.061646,1138.568848 1160.184692,1134.574707 
	C1195.361084,1127.592529 1229.276855,1116.408569 1261.090698,1099.489502 
	C1278.438965,1090.263428 1295.178589,1080.107178 1310.528564,1066.665039 
M1101.741211,1157.911011 
	C1098.048096,1159.905518 1093.818726,1161.289795 1090.746338,1163.990479 
	C1064.272583,1187.260010 1049.626099,1216.811035 1047.116821,1251.762939 
	C1044.684204,1285.648193 1052.599365,1316.819946 1076.383301,1342.435669 
	C1084.378540,1351.046631 1094.269287,1357.274536 1105.321045,1361.288330 
	C1117.996826,1365.891846 1131.026733,1366.729980 1144.530273,1365.343140 
	C1162.830078,1363.463623 1179.437744,1356.904297 1195.018311,1347.993408 
	C1207.488647,1340.861450 1219.105957,1332.163208 1230.747314,1323.673950 
	C1247.621338,1311.369507 1261.771606,1296.168091 1273.691772,1279.165527 
	C1287.831787,1258.996338 1297.814453,1236.738647 1301.688599,1212.233521 
	C1303.495728,1200.803223 1304.804688,1189.147705 1304.716675,1177.606689 
	C1304.633667,1166.740723 1303.188354,1155.728882 1300.944946,1145.075439 
	C1298.152466,1131.816406 1294.041016,1118.825806 1290.248413,1105.792358 
	C1289.137207,1101.973267 1286.641968,1101.260254 1282.962524,1103.578003 
	C1276.238525,1107.813599 1269.510132,1112.197144 1262.316772,1115.503540 
	C1240.916870,1125.340210 1219.249146,1134.448975 1196.442139,1140.806396 
	C1165.654663,1149.388306 1134.355225,1154.755005 1101.741211,1157.911011 
M1297.407471,1603.984131 
	C1299.624268,1602.861084 1301.881348,1601.810547 1304.051392,1600.603516 
	C1319.802612,1591.841675 1332.922119,1579.976807 1344.247314,1566.084595 
	C1363.951294,1541.914917 1374.823853,1514.106323 1376.960693,1483.105469 
	C1378.224121,1464.775391 1376.061279,1446.762573 1370.463989,1429.018555 
	C1365.411133,1413.001343 1357.802979,1398.452881 1346.510254,1386.451538 
	C1323.633423,1362.139404 1295.694824,1348.932495 1261.438965,1350.738647 
	C1243.696655,1351.674194 1227.656738,1357.210449 1212.570557,1366.057251 
	C1197.974365,1374.616333 1185.287842,1385.406616 1174.150757,1398.242554 
	C1165.396484,1408.332275 1157.194824,1418.743164 1151.257568,1430.678833 
	C1146.704224,1439.832642 1143.176514,1449.491089 1138.988770,1458.833740 
	C1133.450073,1471.190430 1131.515137,1484.410522 1131.133545,1497.619873 
	C1130.560791,1517.448364 1135.553711,1536.286011 1146.757446,1552.809692 
	C1153.138550,1562.220581 1160.241211,1571.446533 1168.462402,1579.231689 
	C1179.793945,1589.962036 1192.860474,1598.863892 1207.712158,1604.166382 
	C1218.132446,1607.886719 1228.921387,1611.568848 1239.817993,1612.744507 
	C1259.289307,1614.845337 1278.664307,1613.042969 1297.407471,1603.984131 
M726.058899,1595.549438 
	C739.641235,1587.793091 751.129578,1577.609375 760.895508,1565.441528 
	C783.192871,1537.660645 790.309631,1506.365234 781.723511,1471.839600 
	C777.092834,1453.219238 769.079956,1435.960815 758.585266,1419.801636 
	C743.399963,1396.420410 724.471252,1377.133667 699.754822,1363.818237 
	C681.839233,1354.166748 662.970520,1349.408936 642.435364,1350.661743 
	C625.031311,1351.723389 609.298340,1357.318604 594.557495,1366.044434 
	C568.773254,1381.307495 553.155334,1404.490601 544.880005,1432.692993 
	C539.082642,1452.450317 537.456848,1472.603638 540.605225,1493.287109 
	C543.447754,1511.960815 549.066772,1529.523438 558.127014,1545.877930 
	C567.362793,1562.549316 579.911316,1576.497192 594.831238,1588.574951 
	C617.478577,1606.908325 642.853516,1615.652710 671.955872,1613.189941 
	C691.105164,1611.569336 708.918396,1605.738525 726.058899,1595.549438 
M1292.906128,453.539642 
	C1296.587402,457.080841 1300.268799,460.622070 1304.556519,464.746674 
	C1306.989136,460.143005 1308.623413,455.923309 1311.191772,452.380646 
	C1323.584961,435.285675 1340.975952,431.197845 1360.593384,434.914276 
	C1375.703979,437.776917 1388.479980,445.241791 1399.944824,455.789062 
	C1407.327393,462.580841 1413.399536,470.157684 1418.405884,478.493866 
	C1428.054199,494.559601 1432.295166,512.122864 1429.879395,530.959106 
	C1427.505493,549.469421 1415.386963,567.380981 1394.560547,570.939575 
	C1391.086792,571.533142 1387.663208,572.421143 1384.045044,573.210449 
	C1388.480103,582.886536 1392.472290,592.003296 1396.910645,600.897278 
	C1397.692017,602.463013 1400.329346,603.990417 1402.129517,604.013977 
	C1412.782104,604.153564 1422.863037,601.078430 1432.358887,596.661377 
	C1443.236206,591.601685 1453.579346,585.285034 1460.849976,575.466309 
	C1466.241211,568.185730 1470.906860,560.307800 1475.310059,552.371094 
	C1480.684937,542.683350 1483.210938,531.944214 1483.979248,520.999451 
	C1485.428711,500.357300 1483.126099,480.111237 1473.895142,461.324585 
	C1468.876831,451.111694 1463.638550,440.712555 1456.692139,431.807251 
	C1444.887939,416.674011 1430.644287,404.077179 1412.858398,395.716370 
	C1393.886108,386.797943 1374.538818,381.511230 1353.307373,383.718506 
	C1337.516113,385.360138 1323.321045,390.604797 1310.182129,399.267090 
	C1297.155518,407.855286 1288.293213,420.089630 1281.202515,433.515808 
	C1277.555298,440.421478 1277.641846,441.323608 1283.898071,445.445984 
	C1287.034546,447.512665 1289.531616,450.549805 1292.906128,453.539642 
M554.457581,508.059601 
	C559.633911,500.541870 564.693604,492.939758 570.040283,485.545258 
	C572.395447,482.288116 572.396118,479.844238 569.591553,476.816559 
	C563.134521,469.845612 559.908264,461.174377 559.216797,451.940033 
	C557.389587,427.540558 566.943909,406.886597 583.141296,389.671997 
	C597.137024,374.797302 614.465515,364.408813 635.218201,361.603973 
	C652.382751,359.284119 668.523132,362.031982 681.361023,374.906799 
	C684.542419,378.097412 686.905090,378.511353 690.067932,375.466339 
	C690.753174,374.806671 691.779846,374.506012 692.639160,374.022125 
	C700.695374,369.485260 708.749451,364.944550 716.904968,360.348114 
	C716.316406,358.571686 716.052429,357.056000 715.354370,355.777313 
	C706.094116,338.813843 693.000061,325.762878 675.388977,317.608063 
	C658.007690,309.559662 639.786011,306.372864 620.649780,308.892273 
	C605.189331,310.927795 590.258728,315.020416 576.620728,322.440460 
	C555.897583,333.715332 538.822998,349.283478 526.257874,369.435059 
	C518.041565,382.612000 511.418915,396.705414 509.201385,412.069092 
	C506.832031,428.484528 506.315094,444.983429 511.614105,461.373016 
	C518.230347,481.836609 530.143616,497.891663 547.825806,509.842377 
	C550.129028,511.399017 552.504333,511.819092 554.457581,508.059601 
M1344.144531,448.375946 
	C1336.597778,449.336212 1329.480225,451.974609 1325.336548,458.377777 
	C1321.826538,463.801605 1319.131714,470.205750 1318.023560,476.517914 
	C1317.551514,479.206421 1322.039429,482.766144 1324.276245,485.927979 
	C1324.371704,486.063019 1324.498657,486.175385 1324.606934,486.301910 
	C1342.542358,507.264282 1358.574707,529.584106 1372.730713,553.272217 
	C1373.729248,554.943237 1376.107056,556.460327 1378.056274,556.789795 
	C1398.575073,560.257568 1413.990112,547.993958 1415.678345,527.103455 
	C1417.313599,506.869080 1410.438110,489.326294 1397.581543,474.271393 
	C1383.918823,458.272186 1367.203003,447.496796 1344.144531,448.375946 
M1336.100952,1275.518677 
	C1330.574097,1255.976929 1324.766968,1236.531250 1316.557007,1216.401733 
	C1315.301636,1220.592773 1314.395142,1223.260376 1313.704712,1225.982788 
	C1309.553589,1242.347900 1303.479004,1258.018311 1294.912720,1272.506226 
	C1281.099487,1295.868408 1263.684448,1316.268066 1242.302979,1333.159668 
	C1240.480591,1334.599487 1239.021973,1336.500000 1236.400635,1339.216187 
	C1256.885498,1335.492798 1275.808472,1334.271484 1294.710205,1339.161011 
	C1313.333374,1343.978516 1330.048218,1352.734253 1346.385864,1365.188110 
	C1346.756104,1361.409790 1347.077393,1359.186401 1347.177124,1356.953003 
	C1348.406738,1329.423096 1343.082886,1302.771240 1336.100952,1275.518677 
M595.477295,398.002289 
	C590.365417,405.108490 584.470642,411.789734 580.328064,419.421997 
	C574.343140,430.448669 571.764343,442.528198 574.650757,455.157196 
	C575.864624,460.468079 577.862671,465.476349 582.727356,469.007782 
	C608.541687,437.028656 638.252991,409.755920 671.990295,386.752838 
	C665.502747,378.215820 656.706726,375.931000 647.353333,375.666443 
	C626.984863,375.090332 610.514343,384.101166 595.477295,398.002289 
z"></path>
	<path fill="#000000" opacity="0.100000" stroke="none" d="
M546.115906,1556.938232 
	C550.779968,1563.338501 555.119263,1570.007935 560.164185,1576.092285 
	C581.979614,1602.402466 608.366577,1621.839478 642.813782,1627.631348 
	C663.570496,1631.121460 684.152344,1628.927856 704.274780,1622.363159 
	C723.754150,1616.008423 740.850464,1605.665649 756.736145,1592.918823 
	C759.467163,1590.727539 763.566650,1589.666260 767.170166,1589.243408 
	C778.876343,1587.869873 790.651855,1587.099365 802.389160,1585.976196 
	C815.060181,1584.763794 827.709473,1583.320435 840.385437,1582.166138 
	C846.980530,1581.565430 853.612305,1581.365112 860.228027,1580.992676 
	C884.083069,1579.649658 907.938049,1578.305298 931.793701,1576.973755 
	C938.077332,1576.623047 944.360168,1576.139038 950.649048,1576.022949 
	C973.093079,1575.608643 995.541626,1574.970703 1017.984375,1575.107422 
	C1035.740356,1575.215576 1053.563232,1575.553345 1071.224854,1577.199585 
	C1094.813965,1579.398438 1118.294189,1582.826294 1141.783325,1586.006348 
	C1151.095947,1587.267334 1159.084961,1591.236572 1166.401611,1597.615723 
	C1180.069092,1609.531982 1196.298340,1617.208374 1213.505615,1622.773926 
	C1228.338867,1627.571533 1243.564331,1629.651123 1259.133057,1628.978149 
	C1282.971558,1627.947754 1304.728882,1620.749023 1323.624146,1606.026489 
	C1332.601440,1599.031616 1341.654053,1591.885986 1349.381348,1583.603882 
	C1357.099365,1575.331909 1363.200928,1565.552490 1370.022339,1556.442261 
	C1370.811157,1555.388794 1371.671509,1554.388794 1372.765991,1553.150879 
	C1381.712036,1563.199585 1384.123169,1580.914307 1375.712402,1593.740234 
	C1375.270752,1594.382324 1375.099976,1594.574707 1374.961182,1594.795532 
	C1374.623901,1595.311279 1374.286621,1595.827026 1373.711426,1596.780518 
	C1373.270874,1597.382324 1373.100098,1597.574951 1372.961182,1597.795776 
	C1364.233398,1608.566650 1353.476440,1616.841797 1341.241089,1623.194946 
	C1334.983398,1626.444214 1328.515015,1629.287842 1321.807617,1632.766357 
	C1321.270874,1633.382324 1321.100098,1633.574829 1320.961182,1633.795532 
	C1309.168335,1638.179688 1297.505371,1642.964355 1285.548340,1646.842529 
	C1271.912354,1651.265747 1258.162842,1655.540894 1244.193848,1658.687134 
	C1224.909424,1663.030762 1205.418091,1666.515015 1185.932251,1669.887817 
	C1168.459473,1672.912109 1150.905029,1675.515137 1133.328003,1677.866333 
	C1122.452515,1679.320923 1111.473999,1680.035522 1100.530151,1680.942383 
	C1087.431396,1682.027588 1074.328613,1683.095947 1061.212158,1683.927002 
	C1048.040771,1684.761475 1034.854126,1685.378906 1021.667542,1685.935181 
	C1010.749207,1686.395508 999.822632,1686.685791 988.897217,1686.947876 
	C972.809082,1687.333984 956.719482,1687.837036 940.629211,1687.889771 
	C929.373474,1687.926636 918.111084,1687.400635 906.859680,1686.932983 
	C893.672302,1686.385010 880.486206,1685.746216 867.313171,1684.928589 
	C853.530762,1684.072998 839.742371,1683.192017 825.997131,1681.892944 
	C811.359802,1680.509888 796.730286,1678.909180 782.169861,1676.882812 
	C765.427673,1674.552734 748.719727,1671.904419 732.079529,1668.932129 
	C713.099915,1665.541992 694.038818,1662.349365 675.326782,1657.785400 
	C651.827942,1652.053955 628.613708,1645.089844 606.292480,1635.582153 
	C592.334961,1629.637085 578.404968,1623.533936 566.412354,1613.966797 
	C561.671326,1610.184692 557.216492,1606.043701 552.206299,1601.770142 
	C551.617004,1601.271362 551.424438,1601.100220 551.203674,1600.960938 
	C540.242737,1587.844971 538.227478,1573.452515 545.353638,1557.404785 
	C545.662476,1557.010010 546.115906,1556.938232 546.115906,1556.938232 
z"></path>
	<path fill="#EFC9A0" opacity="1.000000" stroke="none" d="
M939.722656,314.536713 
	C929.618225,314.924133 919.313782,314.932495 908.544128,314.928223 
	C910.085205,314.634186 912.089661,314.126099 914.097900,314.110870 
	C922.572144,314.046448 931.047607,314.128906 939.722656,314.536713 
z"></path>
	<path fill="#af7557" opacity="1.000000" stroke="none" d="
M524.517456,1458.062012 
	C524.971985,1467.630127 525.044128,1477.422241 525.007629,1487.683838 
	C524.560913,1487.480225 523.927979,1486.806519 523.929199,1486.134155 
	C523.946838,1476.851318 524.051636,1467.568481 524.517456,1458.062012 
z"></path>
	<path fill="#E2B07E" opacity="1.000000" stroke="none" d="
M555.508850,1339.203979 
	C555.923096,1347.363159 555.970886,1355.748901 555.939697,1364.603027 
	C555.605164,1361.596558 555.207275,1358.125366 555.128052,1354.646729 
	C555.012512,1349.577393 555.126343,1344.502930 555.508850,1339.203979 
z"></path>
	<path fill="#F0CAA1" opacity="1.000000" stroke="none" d="
M1118.457520,1379.147461 
	C1116.454468,1385.092773 1114.614502,1391.143921 1111.577637,1396.518921 
	C1106.608276,1405.314453 1101.607666,1414.278076 1095.268188,1422.070801 
	C1085.353516,1434.258179 1074.738159,1445.955078 1063.627686,1457.067993 
	C1052.047485,1468.650879 1038.089600,1477.165039 1023.379822,1484.345337 
	C998.755066,1496.365234 972.621399,1501.077271 945.471741,1498.887207 
	C927.036560,1497.400146 909.481628,1492.100098 892.648804,1484.050415 
	C875.496887,1475.848511 860.211426,1465.069092 846.732849,1451.966919 
	C832.604980,1438.233398 821.097168,1422.339844 810.496155,1405.604126 
	C796.672974,1383.781616 789.010010,1359.797852 783.411072,1335.105103 
	C780.503784,1322.283081 779.650024,1308.874512 779.052185,1295.677368 
	C778.112488,1274.933350 778.250488,1254.055664 783.085022,1233.745605 
	C786.758911,1218.311279 791.535217,1203.085205 796.763672,1188.095215 
	C799.952759,1178.952026 804.605530,1170.259033 809.201294,1161.685547 
	C813.015442,1154.570190 817.706848,1147.925049 822.059448,1140.733276 
	C830.165771,1141.434326 838.202148,1142.677124 846.282349,1143.478149 
	C881.007996,1146.920532 915.732178,1150.391113 950.485657,1153.533691 
	C971.340637,1155.419556 992.229553,1157.089722 1013.138733,1158.166382 
	C1030.066406,1159.037964 1047.047119,1158.885742 1064.004639,1159.169312 
	C1066.936768,1159.218384 1069.870361,1159.176147 1074.247925,1159.176147 
	C1070.123169,1164.039673 1066.828369,1167.623535 1063.866211,1171.463745 
	C1034.014893,1210.163574 1025.642822,1253.429077 1037.598267,1300.487793 
	C1044.547363,1327.840820 1059.267822,1350.345703 1083.313599,1365.979736 
	C1093.897827,1372.861572 1105.462646,1377.390015 1118.457520,1379.147461 
z"></path>
	<path fill="#000000" opacity="0.100000" stroke="none" d="
M494.132507,813.361267 
	C500.524658,812.496948 501.347107,818.492737 503.663910,821.881775 
	C519.186035,844.587585 537.330933,864.822815 559.714417,880.791077 
	C568.361816,886.959961 578.531311,891.030151 588.116333,895.839478 
	C596.624084,900.108276 604.500793,905.093628 610.462952,912.710815 
	C614.758545,918.198792 619.790344,923.216064 623.402405,929.111938 
	C631.354736,942.092590 638.572998,955.521362 646.180176,968.715759 
	C649.473816,974.428528 652.847717,980.104980 656.434143,985.636536 
	C662.207886,994.541687 668.417725,1003.169617 674.033813,1012.170288 
	C686.229675,1031.716309 702.599792,1047.388184 720.287476,1061.678223 
	C730.190430,1069.678833 740.713745,1077.104614 751.708008,1083.499268 
	C760.207947,1088.443237 769.730774,1091.783936 779.057617,1095.112793 
	C791.479370,1099.546265 804.036316,1103.702393 816.757324,1107.160767 
	C825.358887,1109.499146 834.307922,1110.680054 843.165222,1111.925415 
	C853.335083,1113.355469 863.570251,1114.333740 873.786621,1115.417480 
	C882.512390,1116.343140 891.247742,1117.184814 899.986145,1117.984009 
	C910.713684,1118.965332 921.447510,1119.879761 932.181946,1120.783325 
	C934.168945,1120.950562 936.171692,1120.936279 938.167419,1120.994141 
	C961.425415,1121.669067 984.679749,1122.572144 1007.942566,1122.944580 
	C1028.029785,1123.266357 1048.164795,1123.755615 1068.208984,1122.763306 
	C1090.708618,1121.649414 1113.155518,1119.199585 1135.573853,1116.839722 
	C1145.780518,1115.765137 1155.897705,1113.691040 1165.992676,1111.744141 
	C1178.513916,1109.329468 1191.098267,1107.066650 1203.420532,1103.841309 
	C1217.659058,1100.114502 1231.651733,1095.442871 1245.731201,1091.116455 
	C1251.437622,1089.362915 1257.208252,1087.731445 1262.743774,1085.527222 
	C1273.208618,1081.360229 1283.489258,1076.733276 1293.917480,1072.471191 
	C1298.900024,1070.434937 1304.045044,1068.796387 1309.525391,1066.978027 
	C1295.178589,1080.107178 1278.438965,1090.263428 1261.090698,1099.489502 
	C1229.276855,1116.408569 1195.361084,1127.592529 1160.184692,1134.574707 
	C1140.061646,1138.568848 1119.574219,1141.405518 1099.115479,1142.857178 
	C1074.095581,1144.632202 1048.930298,1144.993286 1023.834900,1144.836426 
	C1008.456360,1144.740356 993.096558,1142.453735 977.717957,1141.287964 
	C966.627991,1140.447510 955.509949,1139.970215 944.423889,1139.087524 
	C925.578247,1137.587036 906.717224,1136.185059 887.919556,1134.202637 
	C868.468567,1132.151367 849.009216,1129.940674 829.695984,1126.895874 
	C813.819580,1124.393188 798.031982,1121.052002 782.424133,1117.195557 
	C765.659729,1113.053345 748.964233,1108.434937 732.592773,1102.964600 
	C720.555115,1098.942139 708.445923,1094.295776 697.593872,1087.860962 
	C690.494629,1083.651611 684.355713,1076.505981 679.949585,1069.344727 
	C670.657776,1054.243164 662.655090,1038.336792 654.370361,1022.630493 
	C646.311279,1007.352173 639.855591,991.056702 630.398560,976.723633 
	C611.992004,948.827026 588.829712,925.347534 558.346985,910.327271 
	C545.478760,903.986633 531.817749,899.770752 517.330933,899.131653 
	C513.603455,898.967224 512.497803,896.742798 511.763855,893.867493 
	C507.125946,875.697693 502.269531,857.577881 498.018463,839.317505 
	C496.070587,830.950562 495.334625,822.301575 494.132507,813.361267 
z"></path>
	<path fill="#000000" opacity="0.100000" stroke="none" d="
M743.192749,1377.412598 
	C749.624451,1376.252197 755.027405,1379.901001 760.730225,1381.982666 
	C773.643005,1386.696411 786.017395,1393.135620 799.181091,1396.853027 
	C818.726074,1402.372437 838.644348,1406.801270 858.630066,1410.457153 
	C875.507080,1413.544434 892.658997,1415.471191 909.775330,1416.814453 
	C927.639771,1418.216431 945.615295,1419.005859 963.527527,1418.797363 
	C987.192993,1418.522217 1010.863892,1417.400269 1034.271729,1413.180298 
	C1041.090942,1411.950806 1048.167358,1412.121948 1054.968018,1410.823364 
	C1066.801880,1408.563721 1078.495728,1405.581055 1090.281616,1403.056763 
	C1097.526733,1401.505005 1104.909058,1400.545776 1112.091797,1398.764160 
	C1119.601196,1396.901611 1126.960083,1394.420166 1134.355347,1392.114502 
	C1137.981323,1390.983887 1141.591187,1389.766724 1145.118652,1388.363281 
	C1151.318359,1385.896362 1157.402100,1383.133545 1163.631348,1380.747681 
	C1166.198853,1379.764404 1169.016846,1379.434814 1172.099976,1378.760986 
	C1168.313477,1383.346924 1163.792114,1387.712646 1160.064697,1392.674927 
	C1154.317261,1400.326416 1149.074341,1408.359863 1143.688843,1416.279907 
	C1135.240356,1428.704590 1129.365356,1442.365723 1124.717041,1456.573608 
	C1120.999878,1467.935181 1118.052490,1479.427002 1117.784668,1491.540283 
	C1117.391846,1509.289062 1117.876831,1526.854980 1125.883545,1543.211670 
	C1129.381226,1550.356934 1133.420166,1557.235718 1137.107544,1564.290894 
	C1137.811890,1565.638428 1138.020752,1567.244873 1138.458374,1568.731934 
	C1136.924561,1568.947510 1135.349854,1569.504639 1133.863403,1569.325806 
	C1119.245605,1567.568359 1104.690063,1564.936890 1090.024780,1564.009888 
	C1064.679443,1562.407837 1039.276001,1561.528198 1013.883179,1560.940308 
	C993.306458,1560.463989 972.705505,1560.612549 952.122986,1560.953125 
	C936.860657,1561.205566 921.601929,1562.053955 906.357544,1562.918579 
	C885.502197,1564.101807 864.638428,1565.265747 843.821960,1566.971191 
	C824.518921,1568.552490 805.278381,1570.887695 785.997620,1572.760132 
	C782.498352,1573.099854 778.937683,1572.808472 774.435486,1572.808472 
	C777.586182,1567.342041 779.810791,1563.139160 782.351318,1559.136597 
	C791.131836,1545.303467 795.856567,1530.139404 798.236633,1514.003540 
	C800.535889,1498.415405 798.786377,1483.110229 795.136169,1468.119385 
	C788.772278,1441.983643 776.820984,1418.394531 759.965881,1397.385498 
	C754.592651,1390.688110 748.878113,1384.264648 743.192749,1377.412598 
z"></path>
	<path fill="#EFC9A0" opacity="1.000000" stroke="none" d="
M1344.578369,448.334900 
	C1367.203003,447.496796 1383.918823,458.272186 1397.581543,474.271393 
	C1410.438110,489.326294 1417.313599,506.869080 1415.678345,527.103455 
	C1413.990112,547.993958 1398.575073,560.257568 1378.056274,556.789795 
	C1376.107056,556.460327 1373.729248,554.943237 1372.730713,553.272217 
	C1358.574707,529.584106 1342.542358,507.264282 1324.606934,486.301910 
	C1324.498657,486.175385 1324.371704,486.063019 1324.276245,485.927979 
	C1322.039429,482.766144 1317.551514,479.206421 1318.023560,476.517914 
	C1319.131714,470.205750 1321.826538,463.801605 1325.336548,458.377777 
	C1329.480225,451.974609 1336.597778,449.336212 1344.578369,448.334900 
z"></path>
	<path fill="#EFC9A0" opacity="1.000000" stroke="none" d="
M595.733032,397.747101 
	C610.514343,384.101166 626.984863,375.090332 647.353333,375.666443 
	C656.706726,375.931000 665.502747,378.215820 671.990295,386.752838 
	C638.252991,409.755920 608.541687,437.028656 582.727356,469.007782 
	C577.862671,465.476349 575.864624,460.468079 574.650757,455.157196 
	C571.764343,442.528198 574.343140,430.448669 580.328064,419.421997 
	C584.470642,411.789734 590.365417,405.108490 595.733032,397.747101 
z"></path>
	<path fill="#EFC9A1" opacity="1.000000" stroke="none" d="
M1101.398804,891.596924 
	C1102.228027,901.672913 1103.756592,911.752930 1103.699829,921.823914 
	C1103.636597,933.056274 1100.844116,943.787781 1096.824707,954.552673 
	C1088.797119,976.053345 1073.315430,990.583496 1054.827393,1002.105774 
	C1044.714233,1008.408630 1033.158691,1012.725159 1021.806091,1016.639587 
	C1001.014099,1023.808960 979.311035,1025.505371 957.435425,1024.804932 
	C936.768799,1024.143066 916.622559,1020.549744 896.801575,1014.491882 
	C878.993713,1009.049255 862.653381,1000.819153 847.883179,989.776550 
	C831.568726,977.579407 818.429810,962.581421 810.909973,943.148682 
	C803.787964,924.743652 803.038940,906.157043 807.481812,887.051208 
	C811.514160,869.710815 819.309204,854.222290 828.949280,839.416565 
	C840.332336,821.933960 855.159424,807.789368 871.469604,795.199768 
	C882.234436,786.890503 894.397705,780.805603 907.122437,775.773621 
	C924.685913,768.827881 942.778381,765.256348 961.615356,766.168579 
	C975.421936,766.837219 988.729797,769.756897 1001.804138,774.704590 
	C1020.621094,781.825562 1037.157715,792.429199 1051.312378,806.289368 
	C1060.587891,815.372131 1068.060425,826.311218 1076.200439,836.530518 
	C1079.089111,840.157104 1081.564209,844.113281 1084.599121,848.481689 
	C1087.219604,857.489990 1088.887939,866.150757 1091.909546,874.310364 
	C1094.167603,880.407715 1098.172119,885.858337 1101.398804,891.596924 
M917.663086,812.076111 
	C915.472961,814.106384 913.040283,815.932556 911.132385,818.200195 
	C899.525269,831.995972 902.226501,851.623535 917.028198,863.134766 
	C925.452942,869.686707 934.792053,874.237366 945.195374,876.376953 
	C949.151306,877.190491 950.267273,878.902344 949.806458,882.788147 
	C948.846436,890.883606 948.503662,899.055420 947.425415,907.131531 
	C947.145447,909.228394 945.536926,911.754517 943.771118,912.947327 
	C932.814697,920.348938 922.987732,918.644409 912.251648,907.883362 
	C907.614380,903.235352 904.132629,902.145630 900.506897,904.698853 
	C896.001343,907.871765 897.262695,912.189453 898.730591,916.403076 
	C903.512085,930.128967 911.471497,941.679199 923.487366,949.882507 
	C939.732910,960.973389 957.447510,963.896790 976.100891,956.734009 
	C990.706360,951.125610 1000.871155,940.429932 1008.200989,926.838867 
	C1010.448547,922.671448 1013.028442,918.482361 1008.846863,914.081238 
	C1005.768616,910.841431 1002.737549,911.287109 996.473633,915.567749 
	C996.062561,915.848633 995.628723,916.096130 995.214478,916.372559 
	C983.886719,923.933289 975.195435,923.659790 964.771606,914.976868 
	C963.290161,913.742798 962.139221,911.085999 962.235901,909.157959 
	C962.694153,900.019653 963.622009,890.904175 964.433777,881.785217 
	C964.516418,880.856750 964.942200,879.958801 964.840454,880.307068 
	C974.915466,877.875122 984.362488,876.493530 993.126465,873.260315 
	C1005.103699,868.841614 1014.673950,861.037231 1017.137817,847.552124 
	C1019.811707,832.917908 1012.692810,821.878296 1001.242737,814.531616 
	C974.427551,797.326416 946.518921,795.649414 917.663086,812.076111 
z"></path>
	<path fill="#392B2E" opacity="1.000000" stroke="none" d="
M1101.739258,891.672119 
	C1098.172119,885.858337 1094.167603,880.407715 1091.909546,874.310364 
	C1088.887939,866.150757 1087.219604,857.489990 1084.880859,848.676880 
	C1085.222168,846.563721 1085.972900,844.829468 1086.035278,843.070801 
	C1086.926025,817.962952 1098.617188,798.979919 1119.751221,786.221558 
	C1145.269653,770.816345 1170.898315,772.202148 1195.511475,788.711426 
	C1215.067261,801.828491 1225.166504,820.946899 1225.590454,844.060974 
	C1226.054443,869.355347 1215.334351,889.744324 1193.938843,904.124329 
	C1166.067505,922.856873 1128.196899,918.562744 1105.632935,894.381226 
	C1104.643677,893.321106 1103.272827,892.617188 1101.739258,891.672119 
M1132.671997,802.797363 
	C1130.592529,803.814209 1128.377808,804.624817 1126.457031,805.883850 
	C1118.625732,811.017151 1115.278564,818.586243 1116.312012,827.638733 
	C1117.498291,838.030884 1124.450562,845.663452 1133.618164,847.900879 
	C1143.044678,850.201355 1152.850708,846.916138 1158.137329,839.686279 
	C1164.288818,831.273804 1164.786987,820.917603 1159.437256,812.661377 
	C1153.616089,803.677551 1144.842896,800.256897 1132.671997,802.797363 
z"></path>
	<path fill="#392B2E" opacity="1.000000" stroke="none" d="
M806.320801,861.338135 
	C786.019592,879.967651 762.758240,885.595825 736.854248,877.657837 
	C711.614929,869.923584 695.784729,852.119934 689.823303,826.862122 
	C683.296814,799.210266 692.050232,775.142456 713.642944,757.198486 
	C733.967834,740.308228 757.933411,736.027222 782.906738,745.742126 
	C812.469910,757.242493 829.892029,784.915344 827.723022,816.263489 
	C826.515991,833.708313 819.542297,848.938599 806.320801,861.338135 
M765.169250,789.599426 
	C764.236389,776.010254 753.613220,766.312378 740.427673,767.012817 
	C728.162781,767.664429 718.158447,778.312439 718.119568,790.756287 
	C718.080994,803.077209 728.919006,813.916138 741.398376,814.037170 
	C754.728943,814.166443 764.798889,804.199158 765.169250,789.599426 
z"></path>
	<path fill="#F0CAA1" opacity="1.000000" stroke="none" d="
M1173.021240,1508.877563 
	C1173.469116,1500.074951 1172.849243,1491.430054 1174.696045,1483.349121 
	C1180.531982,1457.814819 1193.947266,1436.168213 1212.179932,1417.706421 
	C1222.487305,1407.269409 1234.925171,1399.270996 1248.965454,1394.682007 
	C1271.261353,1387.394531 1291.127319,1393.512085 1309.014526,1407.482056 
	C1320.242432,1416.251099 1327.005737,1428.527100 1331.220703,1441.542969 
	C1337.174683,1459.928711 1337.539307,1478.890015 1332.916870,1498.002930 
	C1327.187866,1521.691040 1314.515747,1540.813721 1296.041748,1556.078003 
	C1274.333984,1574.013916 1249.978149,1577.120239 1224.256836,1565.942383 
	C1215.730347,1562.236816 1206.994263,1557.784546 1200.183350,1551.644409 
	C1189.558472,1542.065674 1178.994019,1531.810669 1175.715088,1516.755493 
	C1175.158081,1514.198364 1173.975952,1511.777344 1173.021240,1508.877563 
z"></path>
	<path fill="#F0CAA1" opacity="1.000000" stroke="none" d="
M708.144409,1558.239136 
	C697.989380,1564.011475 687.890442,1569.194946 676.657654,1571.131592 
	C654.592407,1574.935791 634.897827,1569.691040 618.476929,1554.109619 
	C612.741577,1548.667358 607.244812,1542.899780 602.208435,1536.810059 
	C591.185608,1523.481812 585.029175,1507.958130 582.054382,1490.951294 
	C578.427612,1470.216675 580.412476,1450.078491 589.386719,1431.196533 
	C598.497192,1412.027710 613.511169,1399.258423 634.584839,1393.877075 
	C652.376526,1389.333984 668.292725,1393.367676 683.698120,1402.298950 
	C696.700623,1409.837280 706.857361,1420.221313 716.152161,1431.835571 
	C726.000244,1444.140869 733.994995,1457.592407 738.773499,1472.387939 
	C744.531494,1490.216431 747.197266,1508.225464 737.196472,1526.351440 
	C729.972961,1539.443848 719.943542,1549.222534 708.144409,1558.239136 
z"></path>
	<path fill="#3A2B2F" opacity="1.000000" stroke="none" d="
M917.981689,811.909790 
	C946.518921,795.649414 974.427551,797.326416 1001.242737,814.531616 
	C1012.692810,821.878296 1019.811707,832.917908 1017.137817,847.552124 
	C1014.673950,861.037231 1005.103699,868.841614 993.126465,873.260315 
	C984.362488,876.493530 974.915466,877.875122 964.840454,880.307068 
	C964.942200,879.958801 964.516418,880.856750 964.433777,881.785217 
	C963.622009,890.904175 962.694153,900.019653 962.235901,909.157959 
	C962.139221,911.085999 963.290161,913.742798 964.771606,914.976868 
	C975.195435,923.659790 983.886719,923.933289 995.214478,916.372559 
	C995.628723,916.096130 996.062561,915.848633 996.473633,915.567749 
	C1002.737549,911.287109 1005.768616,910.841431 1008.846863,914.081238 
	C1013.028442,918.482361 1010.448547,922.671448 1008.200989,926.838867 
	C1000.871155,940.429932 990.706360,951.125610 976.100891,956.734009 
	C957.447510,963.896790 939.732910,960.973389 923.487366,949.882507 
	C911.471497,941.679199 903.512085,930.128967 898.730591,916.403076 
	C897.262695,912.189453 896.001343,907.871765 900.506897,904.698853 
	C904.132629,902.145630 907.614380,903.235352 912.251648,907.883362 
	C922.987732,918.644409 932.814697,920.348938 943.771118,912.947327 
	C945.536926,911.754517 947.145447,909.228394 947.425415,907.131531 
	C948.503662,899.055420 948.846436,890.883606 949.806458,882.788147 
	C950.267273,878.902344 949.151306,877.190491 945.195374,876.376953 
	C934.792053,874.237366 925.452942,869.686707 917.028198,863.134766 
	C902.226501,851.623535 899.525269,831.995972 911.132385,818.200195 
	C913.040283,815.932556 915.472961,814.106384 917.981689,811.909790 
M975.986938,824.375854 
	C967.157104,820.080750 958.028564,818.760620 948.619934,822.108337 
	C941.689880,824.574280 940.860535,829.746216 946.783386,834.208740 
	C953.147095,839.003357 960.720398,840.392578 968.414856,839.587097 
	C972.321655,839.178101 976.276917,837.452332 979.786377,835.542786 
	C983.085999,833.747314 982.769897,830.654785 980.363647,827.994141 
	C979.268066,826.782776 977.880066,825.835815 975.986938,824.375854 
M951.004272,930.549561 
	C943.547363,930.020630 936.442322,930.583618 930.579773,936.625244 
	C942.501831,945.324158 955.132446,946.615356 968.464478,943.732422 
	C969.714355,943.462158 971.475647,942.236511 971.650146,941.222351 
	C971.834473,940.150879 970.690308,938.398132 969.628723,937.641357 
	C964.314209,933.852905 958.684631,930.691162 951.004272,930.549561 
z"></path>
	<path fill="#FAFAF7" opacity="1.000000" stroke="none" d="
M1133.069824,802.666687 
	C1144.842896,800.256897 1153.616089,803.677551 1159.437256,812.661377 
	C1164.786987,820.917603 1164.288818,831.273804 1158.137329,839.686279 
	C1152.850708,846.916138 1143.044678,850.201355 1133.618164,847.900879 
	C1124.450562,845.663452 1117.498291,838.030884 1116.312012,827.638733 
	C1115.278564,818.586243 1118.625732,811.017151 1126.457031,805.883850 
	C1128.377808,804.624817 1130.592529,803.814209 1133.069824,802.666687 
z"></path>
	<path fill="#FBFBF9" opacity="1.000000" stroke="none" d="
M765.171936,790.051270 
	C764.798889,804.199158 754.728943,814.166443 741.398376,814.037170 
	C728.919006,813.916138 718.080994,803.077209 718.119568,790.756287 
	C718.158447,778.312439 728.162781,767.664429 740.427673,767.012817 
	C753.613220,766.312378 764.236389,776.010254 765.171936,790.051270 
z"></path>
	<path fill="#F8F7F3" opacity="1.000000" stroke="none" d="
M976.305786,824.572388 
	C977.880066,825.835815 979.268066,826.782776 980.363647,827.994141 
	C982.769897,830.654785 983.085999,833.747314 979.786377,835.542786 
	C976.276917,837.452332 972.321655,839.178101 968.414856,839.587097 
	C960.720398,840.392578 953.147095,839.003357 946.783386,834.208740 
	C940.860535,829.746216 941.689880,824.574280 948.619934,822.108337 
	C958.028564,818.760620 967.157104,820.080750 976.305786,824.572388 
z"></path>
	<path fill="#BE4528" opacity="1.000000" stroke="none" d="
M951.424622,930.661011 
	C958.684631,930.691162 964.314209,933.852905 969.628723,937.641357 
	C970.690308,938.398132 971.834473,940.150879 971.650146,941.222351 
	C971.475647,942.236511 969.714355,943.462158 968.464478,943.732422 
	C955.132446,946.615356 942.501831,945.324158 930.579773,936.625244 
	C936.442322,930.583618 943.547363,930.020630 951.424622,930.661011 
z"></path>
</svg>