<svg version="1.1" id="Layer_1"
	xmlns="http://www.w3.org/2000/svg"
	xmlns:xlink="http://www.w3.org/1999/xlink" x="0px" y="0px" width="600" viewBox="0 0 1920 1920" enable-background="new 0 0 1920 1920" xml:space="preserve" height="600">
	<path fill="#af7557" opacity="1.000000" stroke="none" d="
M523.950806,1466.642456 
	C524.538818,1433.724609 534.646729,1404.761108 555.049072,1379.341553 
	C567.540527,1363.778198 583.476501,1353.308960 601.321045,1344.874390 
	C620.411194,1335.851074 640.482178,1333.875244 660.959473,1335.185669 
	C675.004639,1336.084351 688.462830,1340.219482 701.198120,1346.567871 
	C719.008850,1355.446533 735.096558,1366.682617 748.641663,1381.250000 
	C762.534119,1396.190918 774.055542,1412.761230 783.298584,1431.109497 
	C789.451416,1443.323608 794.117859,1455.964966 797.343079,1469.033447 
	C803.043091,1492.129883 802.929810,1515.525757 794.642944,1537.959229 
	C790.516663,1549.129517 783.503174,1559.240723 777.720886,1569.790039 
	C768.543640,1586.533203 753.123474,1597.044556 737.931641,1607.050537 
	C721.983826,1617.554321 704.299622,1625.225098 684.783691,1626.982300 
	C675.097717,1627.854492 665.358948,1629.079834 655.675659,1628.843872 
	C636.389526,1628.374146 618.373169,1622.935791 601.723389,1612.973633 
	C586.516357,1603.874634 573.272583,1592.391602 561.805237,1579.081177 
	C550.376831,1565.816040 541.318054,1550.849487 535.018677,1534.413208 
	C528.278992,1516.827759 523.694092,1498.763428 523.990112,1479.730347 
	C524.055481,1475.524536 523.943054,1471.316162 523.950806,1466.642456 
z"></path>
	<path fill="#3B2C2F" opacity="1.000000" stroke="none" d="
M545.937256,1556.268311 
	C542.786621,1549.227051 539.510620,1542.238770 536.512695,1535.133179 
	C530.988464,1522.040039 527.574463,1508.381226 525.975037,1494.260010 
	C525.773682,1492.482056 525.270325,1490.738525 525.013428,1488.097412 
	C525.047913,1477.422729 524.975891,1467.629395 524.903870,1457.836182 
	C526.252869,1450.227051 527.027527,1442.458984 529.080200,1435.044678 
	C532.495605,1422.708374 535.989319,1410.279907 543.048462,1399.359253 
	C549.400574,1389.532715 555.693298,1379.634521 562.697693,1370.281128 
	C565.175964,1366.971680 569.625732,1365.098267 573.268250,1362.710938 
	C578.100464,1359.543945 583.065796,1356.580200 587.900574,1353.416992 
	C610.168274,1338.847412 634.954102,1333.975464 660.938232,1336.162109 
	C680.591431,1337.816040 698.995178,1344.564331 715.183533,1356.133301 
	C725.247620,1363.325684 735.440186,1370.584351 744.343201,1379.101196 
	C759.995911,1394.074585 772.755066,1411.550049 781.815063,1431.273315 
	C787.507385,1443.665283 792.680237,1456.507080 796.161377,1469.656494 
	C802.081665,1492.019531 801.963989,1514.823120 793.695740,1536.642212 
	C789.471191,1547.790283 782.665283,1557.960693 777.018005,1568.568726 
	C774.990173,1572.377808 773.691162,1576.948486 770.741272,1579.815063 
	C764.633667,1585.750122 757.539429,1590.654907 751.037354,1596.201904 
	C739.779724,1605.806152 727.195190,1613.371338 713.361816,1618.224487 
	C702.252930,1622.121704 690.598877,1624.801636 678.978394,1626.825317 
	C661.465088,1629.875488 643.820496,1628.582520 627.074097,1622.858643 
	C616.323059,1619.183960 606.054321,1613.614136 596.279846,1607.716309 
	C588.166626,1602.820923 580.694397,1596.638794 573.680481,1590.215942 
	C567.925049,1584.945435 563.112000,1578.604126 558.160706,1572.510376 
	C554.138672,1567.560547 550.531372,1562.273682 546.318604,1556.900879 
	C545.897156,1556.665405 545.937256,1556.268311 545.937256,1556.268311 
M749.411926,1577.927979 
	C754.234192,1572.447632 759.305908,1567.164673 763.830566,1561.448853 
	C775.890198,1546.214478 782.812195,1528.596436 784.870850,1509.488403 
	C787.045044,1489.308105 782.598999,1469.755371 774.964172,1451.150757 
	C765.373230,1427.779785 752.017700,1406.789917 733.664124,1389.084595 
	C720.627869,1376.509033 706.381287,1365.924194 689.668701,1358.769409 
	C676.681091,1353.209229 663.005737,1350.116577 649.041138,1350.174927 
	C637.344116,1350.223877 625.676392,1352.100220 614.499939,1356.535889 
	C597.273926,1363.372437 581.929016,1372.600830 569.659912,1386.808838 
	C548.692566,1411.089478 539.954834,1439.740356 539.040894,1471.157227 
	C538.825500,1478.561523 540.010986,1486.030884 540.848816,1493.436768 
	C543.416443,1516.132324 551.677673,1536.751587 564.232849,1555.686157 
	C573.004517,1568.914795 583.557983,1580.654785 596.574219,1589.756470 
	C605.513855,1596.007446 614.702148,1602.509644 624.740295,1606.453369 
	C644.182312,1614.091553 664.426086,1615.864136 685.303223,1611.329224 
	C709.616760,1606.047974 730.777954,1595.341919 749.411926,1577.927979 
z"></path>
	<path fill="#F0CAA1" opacity="1.000000" stroke="none" d="
M733.034973,1458.913452 
	C739.772461,1472.671997 743.780029,1486.746338 743.872437,1501.772217 
	C743.939941,1512.756470 739.452698,1522.220337 734.196838,1531.603638 
	C728.419006,1541.918701 720.008545,1549.800415 710.702393,1556.259155 
	C698.563049,1564.684326 685.119080,1570.883911 669.861572,1571.958252 
	C659.483459,1572.688843 649.234314,1572.096436 639.781799,1567.747070 
	C632.909424,1564.585083 626.530945,1560.254272 620.210144,1556.028931 
	C617.083679,1553.939331 614.493835,1551.000732 611.816040,1548.293213 
	C595.866821,1532.166260 585.776733,1513.113281 581.998474,1490.569458 
	C578.546570,1469.973022 580.494751,1450.044556 589.343323,1431.303345 
	C598.414917,1412.089966 613.421814,1399.332642 634.468811,1393.908325 
	C652.436218,1389.277832 668.499939,1393.405762 684.020996,1402.494507 
	C696.985779,1410.086060 707.660156,1420.072144 716.187561,1432.274536 
	C722.130371,1440.778442 727.368103,1449.774902 733.034973,1458.913452 
z"></path>
</svg>
