<?xml version="1.0" standalone="no"?>
<!DOCTYPE svg PUBLIC "-//W3C//DTD SVG 20010904//EN"
 "http://www.w3.org/TR/2001/REC-SVG-20010904/DTD/svg10.dtd">
<svg version="1.0" xmlns="http://www.w3.org/2000/svg"
 width="360.000000pt" height="360.000000pt" viewBox="0 0 360.000000 360.000000"
 preserveAspectRatio="xMidYMid meet">

<g transform="translate(0.000000,360.000000) scale(0.100000,-0.100000)"
fill="#000000" stroke="none">
<path d="M1805 2822 c-1 -228 -28 -365 -106 -539 -69 -153 -212 -327 -343
-418 l-56 -38 0 -557 0 -557 103 -56 104 -56 608 -1 607 -1 47 28 c61 38 97
109 113 221 11 82 12 84 50 108 76 48 99 124 78 251 -15 85 -21 73 64 133 45
32 71 94 61 147 -3 21 -21 63 -38 95 l-31 56 39 76 c122 240 -15 363 -435 391
-88 6 -423 -9 -462 -21 -22 -7 -61 32 -54 54 18 59 38 248 39 372 1 208 -32
321 -120 406 -52 51 -115 74 -202 74 l-66 0 0 -168z"/>
<path d="M503 1888 c-53 -25 -53 -31 -53 -640 0 -540 1 -564 20 -595 31 -51
60 -55 398 -51 l304 3 29 33 29 32 0 584 0 584 -31 31 -31 31 -321 -1 c-205 0
-330 -4 -344 -11z"/>
</g>
</svg>
