<svg version="1.1" id="Layer_1"
	xmlns="http://www.w3.org/2000/svg"
	xmlns:xlink="http://www.w3.org/1999/xlink" x="0px" y="0px" width="520.7999877929688" viewBox="0 0 1920 1920" enable-background="new 0 0 1920 1920" xml:space="preserve" height="520.7999877929688">
	<path fill="#af7557" opacity="1.000000" stroke="none" d="
M1098.084106,1157.796631 
	C1111.217163,1162.269775 1124.381836,1166.653198 1137.474854,1171.240356 
	C1151.651489,1176.207031 1165.753906,1181.385132 1179.901978,1186.433594 
	C1214.654297,1198.833984 1249.412109,1211.219116 1284.176880,1223.584595 
	C1286.314697,1224.344971 1288.531982,1224.881592 1291.819824,1225.848022 
	C1277.469604,1253.442871 1263.237549,1280.810791 1248.607910,1308.604736 
	C1242.077881,1315.044678 1236.540283,1321.863403 1229.698975,1326.917725 
	C1211.008179,1340.726929 1192.067993,1354.247192 1172.674194,1367.044556 
	C1143.648315,1386.197876 1113.316772,1402.731689 1077.391846,1404.052612 
	C1060.998169,1404.655396 1044.508667,1404.710083 1028.150146,1403.656006 
	C1010.528198,1402.520508 993.772095,1396.831177 977.058594,1391.244141 
	C954.221008,1383.609985 934.212769,1371.982910 918.657593,1353.187622 
	C903.236633,1334.554565 898.391846,1312.985474 901.733398,1289.709717 
	C906.283936,1258.012451 924.791443,1234.933960 949.636475,1216.149536 
	C973.970947,1197.751099 1001.878357,1189.294189 1031.739014,1185.941528 
	C1053.010742,1183.553223 1072.939087,1177.241211 1090.513672,1164.633423 
	C1093.259277,1162.663940 1095.571533,1160.090698 1098.084106,1157.796631 
z"></path>
	<path fill="#392A2E" opacity="1.000000" stroke="none" d="
M1098.034424,1157.416870 
	C1095.571533,1160.090698 1093.259277,1162.663940 1090.513672,1164.633423 
	C1072.939087,1177.241211 1053.010742,1183.553223 1031.739014,1185.941528 
	C1001.878357,1189.294189 973.970947,1197.751099 949.636475,1216.149536 
	C924.791443,1234.933960 906.283936,1258.012451 901.733398,1289.709717 
	C898.391846,1312.985474 903.236633,1334.554565 918.657593,1353.187622 
	C934.212769,1371.982910 954.221008,1383.609985 977.058594,1391.244141 
	C993.772095,1396.831177 1010.528198,1402.520508 1028.150146,1403.656006 
	C1044.508667,1404.710083 1060.998169,1404.655396 1077.391846,1404.052612 
	C1113.316772,1402.731689 1143.648315,1386.197876 1172.674194,1367.044556 
	C1192.067993,1354.247192 1211.008179,1340.726929 1229.698975,1326.917725 
	C1236.540283,1321.863403 1242.077881,1315.044678 1248.550293,1308.964355 
	C1250.342285,1314.227539 1245.790161,1324.688721 1240.432617,1328.768066 
	C1230.654541,1336.213379 1220.958618,1343.766235 1211.216064,1351.258179 
	C1194.111450,1364.411621 1177.511719,1378.300415 1159.757935,1390.510742 
	C1137.421631,1405.872681 1112.385254,1415.724609 1085.346436,1418.576416 
	C1069.729126,1420.223755 1053.752441,1420.173462 1038.070923,1419.040039 
	C1020.961182,1417.803467 1003.593628,1415.986694 987.084045,1411.610352 
	C964.918335,1405.734619 943.443787,1396.922241 924.992310,1382.812378 
	C905.449951,1367.868530 892.243774,1347.929321 887.491394,1323.829224 
	C882.329651,1297.653198 887.546021,1272.654175 900.994080,1249.385376 
	C908.206726,1236.905273 916.606445,1225.463135 927.010132,1215.491821 
	C942.214417,1200.919312 959.644409,1190.033325 979.427124,1182.640381 
	C997.502380,1175.885376 1016.456665,1173.423950 1035.231934,1170.016602 
	C1048.945435,1167.527832 1061.887329,1162.894165 1074.067505,1156.240112 
	C1081.231567,1152.326538 1088.662964,1154.396851 1096.014404,1154.489014 
	C1096.681641,1154.497314 1097.328491,1156.148682 1098.034424,1157.416870 
z"></path>
</svg>